<svg width="52" height="52" viewBox="0 0 52 52" fill="none" xmlns="http://www.w3.org/2000/svg">
<path d="M10.3333 22.2205C14.4541 30.3044 21.0289 36.8756 29.1149 40.9917L35.3859 34.7119C36.1698 33.9279 37.2957 33.697 38.2819 34.0135C41.4858 35.0596 44.9092 35.6326 48.4637 35.6326C49.2197 35.6326 49.9448 35.9329 50.4793 36.4675C51.0139 37.0021 51.3142 37.7272 51.3142 38.4832V48.4603C51.3142 49.2164 51.0139 49.9414 50.4793 50.476C49.9448 51.0106 49.2197 51.3109 48.4637 51.3109C21.698 51.3109 0.00325012 29.615 0.00325012 2.85061C0.00325012 2.09458 0.303564 1.36952 0.838127 0.834924C1.37269 0.300332 2.09771 0 2.8537 0H12.8303C13.5863 0 14.3113 0.300332 14.8458 0.834924C15.3804 1.36952 15.6807 2.09458 15.6807 2.85061C15.6807 6.40532 16.2508 9.8289 17.2998 13.033C17.4616 13.5325 17.4822 14.0671 17.3595 14.5776C17.2368 15.0882 16.9754 15.5549 16.6043 15.9263L10.3333 22.2205V22.2205Z" fill="black"/>
</svg>
