<svg width="55" height="80" viewBox="0 0 55 80" fill="none" xmlns="http://www.w3.org/2000/svg">
<path d="M27.4088 16.8255C30.2051 16.8255 32.8868 17.9339 34.8641 19.9069C36.8414 21.8799 37.9522 24.5559 37.9522 27.3462C37.9522 30.1364 36.8414 32.8124 34.8641 34.7854C32.8868 36.7584 30.2051 37.8668 27.4088 37.8668C24.6125 37.8668 21.9307 36.7584 19.9534 34.7854C17.9761 32.8124 16.8653 30.1364 16.8653 27.3462C16.8653 24.5559 17.9761 21.8799 19.9534 19.9069C21.9307 17.9339 24.6125 16.8255 27.4088 16.8255V16.8255ZM27.4088 21.0338C25.731 21.0338 24.1219 21.6988 22.9356 22.8826C21.7492 24.0664 21.0827 25.672 21.0827 27.3462C21.0827 29.0203 21.7492 30.6259 22.9356 31.8097C24.1219 32.9935 25.731 33.6586 27.4088 33.6586C29.0865 33.6586 30.6956 32.9935 31.882 31.8097C33.0683 30.6259 33.7348 29.0203 33.7348 27.3462C33.7348 25.672 33.0683 24.0664 31.882 22.8826C30.6956 21.6988 29.0865 21.0338 27.4088 21.0338V21.0338ZM7.58707 39.3692L27.4088 71.8991L47.2305 39.3692C49.3682 35.8595 50.5315 31.8454 50.6011 27.7389C50.6706 23.6324 49.6438 19.5814 47.6261 16.0017C45.6084 12.422 42.6724 9.44242 39.1195 7.36888C35.5666 5.29535 31.5247 4.2025 27.4088 4.2025C23.2928 4.2025 19.2509 5.29535 15.698 7.36888C12.1451 9.44242 9.20917 12.422 7.19146 16.0017C5.17374 19.5814 4.14695 23.6324 4.21647 27.7389C4.286 31.8454 5.44933 35.8595 7.58707 39.3692V39.3692ZM50.8321 41.5575L27.4088 80L3.98543 41.5575C1.45973 37.4096 0.0855327 32.6658 0.00386521 27.813C-0.0778022 22.9602 1.136 18.1731 3.5207 13.9429C5.90541 9.71273 9.37514 6.19187 13.5738 3.74163C17.7725 1.29138 22.549 0 27.413 0C32.277 0 37.0534 1.29138 41.2521 3.74163C45.4508 6.19187 48.9205 9.71273 51.3053 13.9429C53.69 18.1731 54.9038 22.9602 54.8221 27.813C54.7404 32.6658 53.3662 37.4096 50.8405 41.5575H50.8321V41.5575Z" fill="black"/>
</svg>
