<svg width="27" height="26" viewBox="0 0 27 26" fill="none" xmlns="http://www.w3.org/2000/svg">
<path d="M23.8184 0H3.59616C2.00728 0 0.707275 1.3 0.707275 2.88889V23.1111C0.707275 24.7014 2.00728 26 3.59616 26H23.8184C25.4073 26 26.7073 24.7014 26.7073 23.1111V2.88889C26.7073 1.3 25.4073 0 23.8184 0ZM13.6842 20.9777C15.8059 20.9773 17.8405 20.1342 19.3406 18.6338C20.8408 17.1334 21.6835 15.0986 21.6835 12.9769C21.6835 12.4887 21.6214 12.0178 21.5347 11.5556H23.8184V21.9787C23.8184 22.1099 23.7925 22.2399 23.7421 22.3611C23.6917 22.4823 23.6179 22.5923 23.5249 22.685C23.4319 22.7776 23.3215 22.8509 23.2001 22.9007C23.0787 22.9505 22.9486 22.9759 22.8174 22.9753H4.59716C4.46592 22.9759 4.33585 22.9505 4.21443 22.9007C4.093 22.8509 3.98262 22.7776 3.88961 22.685C3.7966 22.5923 3.7228 22.4823 3.67244 22.3611C3.62209 22.2399 3.59616 22.1099 3.59616 21.9787V11.5556H5.83361C5.7455 12.0178 5.68339 12.4887 5.68339 12.9769C5.68377 15.0987 6.52683 17.1335 8.02718 18.6339C9.52754 20.1342 11.5623 20.9773 13.6842 20.9777V20.9777ZM8.68494 12.9769C8.68494 12.3204 8.81425 11.6703 9.06548 11.0638C9.31672 10.4572 9.68496 9.90613 10.1492 9.44191C10.6134 8.97768 11.1645 8.60944 11.771 8.35821C12.3776 8.10697 13.0277 7.97767 13.6842 7.97767C14.3407 7.97767 14.9907 8.10697 15.5973 8.35821C16.2038 8.60944 16.7549 8.97768 17.2191 9.44191C17.6834 9.90613 18.0516 10.4572 18.3028 11.0638C18.5541 11.6703 18.6834 12.3204 18.6834 12.9769C18.6834 14.3028 18.1567 15.5743 17.2191 16.5119C16.2816 17.4494 15.01 17.9761 13.6842 17.9761C12.3583 17.9761 11.0867 17.4494 10.1492 16.5119C9.21164 15.5743 8.68494 14.3028 8.68494 12.9769V12.9769ZM22.8174 7.22222H20.4846C20.2197 7.22146 19.9659 7.1159 19.7787 6.92862C19.5914 6.74133 19.4858 6.48753 19.4851 6.22267V3.887C19.4851 3.33522 19.9328 2.88889 20.4832 2.88889H22.8159C23.3706 2.88889 23.8184 3.33522 23.8184 3.887V6.22122C23.8184 6.77156 23.3706 7.22222 22.8174 7.22222Z" fill="white"/>
</svg>
