<svg width="27" height="26" viewBox="0 0 27 26" fill="none" xmlns="http://www.w3.org/2000/svg">
<path d="M5.16212 0C2.53224 0 0.414673 2.11757 0.414673 4.74743V21.2525C0.414673 23.8824 2.53224 26 5.16212 26H14.1078V15.8356H11.42V12.1761H14.1078V9.04962C14.1078 6.59327 15.6958 4.33794 19.3541 4.33794C20.8352 4.33794 21.9305 4.48013 21.9305 4.48013L21.8444 7.89751C21.8444 7.89751 20.7273 7.88695 19.5084 7.88695C18.1892 7.88695 17.9777 8.49478 17.9777 9.50384V12.1761H21.9492L21.7761 15.8356H17.9777V26H21.6672C24.2971 26 26.4147 23.8824 26.4147 21.2526V4.74746C26.4147 2.11759 24.2971 2.59999e-05 21.6672 2.59999e-05H5.16209L5.16212 0Z" fill="white"/>
</svg>
