<svg width="26" height="26" viewBox="0 0 26 26" fill="none" xmlns="http://www.w3.org/2000/svg">
<path d="M16.9949 0H9.0181C1.7329 0 0 1.7329 0 9.0051V16.9819C0 24.2658 1.7199 26 9.0051 26H16.9819C24.2658 26 26 24.2801 26 16.9949V9.0181C26 1.7329 24.2801 0 16.9949 0ZM20.9898 18.551H19.0931C18.3755 18.551 18.1597 17.9699 16.8727 16.6829C15.7495 15.6 15.275 15.4648 14.9903 15.4648C14.5977 15.4648 14.4898 15.5727 14.4898 16.1148V17.8204C14.4898 18.2819 14.3403 18.5523 13.1352 18.5523C11.9656 18.4737 10.8315 18.1184 9.82618 17.5156C8.82085 16.9128 7.97312 16.0798 7.3528 15.0852C5.88012 13.2522 4.85542 11.1009 4.3602 8.8023C4.3602 8.5176 4.4681 8.2602 5.0102 8.2602H6.9056C7.3931 8.2602 7.5686 8.4773 7.7597 8.9778C8.6801 11.687 10.2505 14.0426 10.8875 14.0426C11.1319 14.0426 11.2385 13.9347 11.2385 13.325V10.5352C11.1579 9.2625 10.4819 9.1546 10.4819 8.6944C10.4906 8.57302 10.5462 8.45979 10.637 8.37873C10.7277 8.29767 10.8465 8.25516 10.9681 8.2602H13.9477C14.3546 8.2602 14.4898 8.463 14.4898 8.9505V12.7153C14.4898 13.1222 14.6653 13.2574 14.7875 13.2574C15.0319 13.2574 15.2204 13.1222 15.6676 12.675C16.6281 11.5036 17.4129 10.1986 17.9972 8.801C18.0569 8.63312 18.1699 8.48939 18.319 8.39175C18.468 8.29411 18.6449 8.24791 18.8227 8.2602H20.7194C21.2875 8.2602 21.4084 8.5449 21.2875 8.9505C20.5978 10.4955 19.7445 11.962 18.7421 13.325C18.538 13.637 18.4561 13.7995 18.7421 14.1648C18.9306 14.4495 19.5949 15.0046 20.0421 15.5324C20.692 16.1806 21.2316 16.9306 21.6398 17.7528C21.8023 18.2806 21.5306 18.5523 20.9898 18.5523V18.551Z" fill="white"/>
</svg>
