<svg width="26" height="26" viewBox="0 0 26 26" fill="none" xmlns="http://www.w3.org/2000/svg">
<path fill-rule="evenodd" clip-rule="evenodd" d="M4.81481 0C2.15567 0 0 2.15567 0 4.81482V21.1852C0 23.8443 2.15567 26 4.81482 26H21.1852C23.8443 26 26 23.8443 26 21.1852V4.81481C26 2.15567 23.8443 0 21.1852 0H4.81481ZM8.16889 7.44228V19.7407H10.6221C11.6816 19.7407 12.4776 19.412 13.01 18.7546C13.499 18.1569 13.7435 17.2957 13.7435 16.171V10.9957C13.7435 9.871 13.499 9.01252 13.01 8.42028C12.4776 7.76828 11.6816 7.44228 10.6221 7.44228H8.16889ZM10.6221 18.1678H9.74185V9.00709H10.6221C10.8231 9.00709 11.016 9.02339 11.2007 9.05599C11.3854 9.08859 11.5457 9.17281 11.6816 9.30864C11.8228 9.44448 11.9369 9.64551 12.0239 9.91175C12.1108 10.178 12.1543 10.5393 12.1543 10.9957V16.171C12.1543 16.6274 12.1108 16.9887 12.0239 17.255C11.9369 17.5212 11.8228 17.7222 11.6816 17.8581C11.5457 17.9885 11.3854 18.0727 11.2007 18.1107C11.016 18.1488 10.8231 18.1678 10.6221 18.1678ZM14.7052 18.9583V19.7407H17.3051H19.1307H19.9294V18.1678H19.1307H17.3051H16.3434C16.3869 17.9015 16.4494 17.6489 16.5309 17.4098C16.6178 17.1707 16.7265 16.9208 16.8569 16.66C16.9927 16.3992 17.1557 16.1248 17.3459 15.8369L17.9734 14.867C18.0767 14.7149 18.1772 14.5682 18.275 14.4269L18.5765 14.0194L19.0655 13.3429C19.2177 13.1147 19.3535 12.8702 19.473 12.6094C19.598 12.3432 19.6985 12.0579 19.7746 11.7537C19.8561 11.4494 19.9023 11.1017 19.9131 10.7105H19.9294V10.5801H19.9131C19.9023 10.1128 19.8289 9.68355 19.6931 9.29234C19.5627 8.90114 19.3861 8.5697 19.1633 8.29803C18.9406 8.02636 18.6689 7.81718 18.3483 7.67048C18.0332 7.51834 17.6855 7.44228 17.3051 7.44228C16.7726 7.44228 16.3488 7.54279 16.0337 7.74383C15.7186 7.93943 15.4822 8.14861 15.3247 8.37138C14.9117 8.93102 14.7052 9.71071 14.7052 10.7105V11.5092H16.2782V10.7105C16.2782 10.2867 16.3135 9.95793 16.3842 9.7243C16.4548 9.49066 16.5444 9.32223 16.6531 9.21899C16.7672 9.11032 16.8813 9.04784 16.9954 9.03154C17.115 9.01524 17.2182 9.00709 17.3051 9.00709C17.5388 9.00709 17.7235 9.07501 17.8593 9.21084C17.9952 9.34124 18.0984 9.49881 18.169 9.68355C18.2397 9.86828 18.2858 10.053 18.3076 10.2378C18.3293 10.4225 18.3402 10.5638 18.3402 10.6616C18.3402 10.9278 18.3157 11.1641 18.2668 11.3706C18.2179 11.5771 18.15 11.7727 18.0631 11.9574C17.9761 12.1367 17.8675 12.316 17.7371 12.4953L17.3051 13.0821L16.6613 13.9786L15.8707 15.2011C15.6371 15.5815 15.4306 15.9673 15.2513 16.3585C15.0774 16.7442 14.9416 17.1463 14.8438 17.5647C14.7514 17.983 14.7052 18.4476 14.7052 18.9583Z" fill="white"/>
</svg>
