<svg width="27" height="26" viewBox="0 0 27 26" fill="none" xmlns="http://www.w3.org/2000/svg">
<path d="M21.7886 8.15885C21.1567 8.44097 20.4739 8.63281 19.7404 8.73438C20.5078 8.28299 21.0325 7.62283 21.3147 6.75391C20.5812 7.18273 19.8251 7.47049 19.0464 7.61719C18.3581 6.8724 17.4948 6.5 16.4566 6.5C15.4748 6.5 14.6369 6.84701 13.9429 7.54102C13.2489 8.23503 12.9019 9.07292 12.9019 10.0547C12.9019 10.3819 12.9301 10.6528 12.9865 10.8672C11.5308 10.7882 10.1654 10.4214 8.89018 9.76693C7.615 9.11241 6.53167 8.23785 5.64018 7.14323C5.31292 7.70747 5.14929 8.30556 5.14929 8.9375C5.14929 10.224 5.66275 11.2114 6.68966 11.8997C6.15927 11.8885 5.59504 11.7418 4.99695 11.4596V11.4935C4.99695 12.3398 5.27907 13.0931 5.8433 13.7533C6.40754 14.4134 7.10155 14.8225 7.92533 14.9805C7.59808 15.0707 7.31032 15.1159 7.06205 15.1159C6.91535 15.1159 6.6953 15.0933 6.4019 15.0482C6.63888 15.7591 7.05923 16.3459 7.66296 16.8086C8.2667 17.2713 8.95224 17.5082 9.7196 17.5195C8.41058 18.5352 6.93792 19.043 5.30164 19.043C5.00823 19.043 4.72612 19.026 4.45528 18.9922C6.12542 20.053 7.94226 20.5833 9.9058 20.5833C11.1697 20.5833 12.3546 20.383 13.4605 19.9824C14.5664 19.5818 15.5143 19.0458 16.3042 18.3743C17.0942 17.7029 17.7741 16.9299 18.344 16.0553C18.9138 15.1808 19.337 14.2667 19.6135 13.3132C19.89 12.3596 20.0282 11.4089 20.0282 10.4609C20.0282 10.2578 20.0226 10.1055 20.0113 10.0039C20.7222 9.49609 21.3147 8.88108 21.7886 8.15885ZM26.1219 4.875V21.125C26.1219 22.4679 25.6452 23.6161 24.6916 24.5697C23.7381 25.5232 22.5898 26 21.2469 26H4.99695C3.65407 26 2.50585 25.5232 1.55229 24.5697C0.598728 23.6161 0.121948 22.4679 0.121948 21.125V4.875C0.121948 3.53212 0.598728 2.3839 1.55229 1.43034C2.50585 0.47678 3.65407 0 4.99695 0H21.2469C22.5898 0 23.7381 0.47678 24.6916 1.43034C25.6452 2.3839 26.1219 3.53212 26.1219 4.875Z" fill="white"/>
</svg>
