<svg width="26" height="26" viewBox="0 0 26 26" fill="none" xmlns="http://www.w3.org/2000/svg">
<path fill-rule="evenodd" clip-rule="evenodd" d="M4.8152 0C2.15584 0 0 2.15584 0 4.8152V21.1848C0 23.8442 2.15584 26 4.8152 26H21.1848C23.8442 26 26 23.8442 26 21.1848V4.8152C26 2.15584 23.8442 0 21.1848 0H4.8152ZM15.3992 11.5282C14.1754 11.4966 13.2847 11.4808 12.727 11.4808C9.93855 11.5757 8.06411 11.6232 7.10366 11.6232C6.08123 11.6865 5.4306 12.2086 5.15176 13.1897C5.02783 13.696 4.95037 14.1866 4.91939 14.6613C4.82644 16.3385 4.79546 17.8259 4.82644 19.1234C4.88841 20.2311 5.01234 21.0539 5.19823 21.5919C5.47707 22.2565 5.92632 22.6679 6.54597 22.8261C6.91776 22.9527 7.25857 23.016 7.56839 23.016C7.87822 23.016 8.50561 23.0318 9.45058 23.0634C10.3955 23.0951 11.1314 23.1109 11.6581 23.1109C13.1762 23.1109 15.5309 23.0634 18.7221 22.9685C19.7135 22.9369 20.3797 22.5413 20.7205 21.7818C20.9064 21.3703 21.0148 20.9748 21.0458 20.595C21.1387 19.076 21.1852 17.6993 21.1852 16.4651C21.1852 15.7056 21.1077 14.772 20.9528 13.6644C20.7669 12.5884 20.2402 11.9555 19.3727 11.7656C19.0319 11.6706 18.6291 11.6232 18.1644 11.6232C17.5448 11.5915 16.623 11.5599 15.3992 11.5282ZM14.8183 20.9748C14.5395 20.7849 14.3381 20.6425 14.2141 20.5475C14.1832 20.7058 14.1832 20.8482 14.2141 20.9748H13.2382V13.4745H14.2141V15.848L14.3768 15.6819C14.4543 15.6027 14.524 15.5474 14.5859 15.5157C14.9267 15.2625 15.2366 15.1913 15.5154 15.3021C15.7942 15.4129 15.9801 15.6739 16.0731 16.0854C16.166 16.3069 16.2125 16.5442 16.2125 16.7974V19.6456C16.2125 19.8038 16.1815 20.0254 16.1196 20.3102C16.0576 20.6583 15.8949 20.8956 15.6316 21.0222C15.3682 21.1488 15.0971 21.133 14.8183 20.9748ZM12.3552 15.3733V20.9748H11.3328V20.4051C11.2088 20.5634 11.1159 20.6583 11.0539 20.6899C10.7751 20.8798 10.5737 20.9906 10.4498 21.0222C9.95404 21.1805 9.64422 21.0064 9.52029 20.5001C9.48931 20.3102 9.47382 20.1678 9.47382 20.0728V15.3733H10.4962V19.6931C10.4962 19.883 10.5427 19.9937 10.6357 20.0254C10.7906 20.0887 10.93 20.0412 11.0539 19.883C11.2398 19.7564 11.3328 19.5665 11.3328 19.3133V15.3733H12.3552ZM19.8607 17.8417C19.8452 18.0633 19.8375 18.2373 19.8375 18.3639C19.0009 18.3639 18.3348 18.3481 17.8391 18.3164C17.8701 18.981 17.9011 19.4557 17.932 19.7405C17.963 19.9937 18.1024 20.1203 18.3503 20.1203C18.5982 20.1203 18.7376 19.9779 18.7686 19.6931C18.7995 19.5665 18.815 19.345 18.815 19.0285H19.8375C19.9614 19.4715 19.9227 19.8909 19.7213 20.2864C19.5199 20.682 19.2178 20.9273 18.815 21.0222C18.3193 21.1488 17.8856 21.0934 17.5138 20.8561C17.142 20.6187 16.9251 20.2627 16.8631 19.788C16.7702 18.712 16.7702 17.6519 16.8631 16.6075C16.8941 16.1645 17.0568 15.8243 17.3511 15.5869C17.6454 15.3496 18.0095 15.2467 18.4432 15.2784C18.846 15.31 19.1713 15.4524 19.4192 15.7056C19.6671 15.9588 19.8065 16.3069 19.8375 16.7499C19.8684 16.9082 19.8839 17.0743 19.8839 17.2484C19.8839 17.4224 19.8762 17.6202 19.8607 17.8417ZM9.61324 13.4745V14.5663H8.45139V20.9748H7.28955V14.5663H6.17418V13.4745H9.61324ZM16.3055 9.24967V4.83496C15.8407 4.83496 15.4999 4.85078 15.283 4.88243V9.62943C15.283 9.72437 15.2985 9.83514 15.3295 9.96172C15.3915 10.2149 15.5231 10.3969 15.7245 10.5076C15.9259 10.6184 16.1505 10.6105 16.3984 10.4839C16.4913 10.4522 16.6618 10.3415 16.9096 10.1516L17.142 9.91425V10.4839H18.1644V4.83496H17.142V8.82244C17.142 9.10726 17.0335 9.32879 16.8167 9.48702C16.6927 9.58196 16.5843 9.61361 16.4913 9.58196C16.3674 9.55031 16.3055 9.43955 16.3055 9.24967ZM8.91613 2.88869H7.89371C8.14157 3.7748 8.40492 4.64508 8.68376 5.49954C9.1485 6.8287 9.34989 8.06292 9.28792 9.2022C9.25694 9.32879 9.24145 9.45538 9.24145 9.58196C9.24145 9.70855 9.24919 9.85887 9.26468 10.0329C9.28018 10.207 9.28792 10.3415 9.28792 10.4364H10.3568V7.63569C10.3568 7.50911 10.3878 7.35087 10.4498 7.16099C10.5737 6.71794 10.7751 6.05336 11.0539 5.16725C11.3328 4.28115 11.5342 3.61656 11.6581 3.17351C11.6581 3.14186 11.6736 3.11022 11.7046 3.07857C11.7355 2.98363 11.751 2.92034 11.751 2.88869H10.7286C10.6357 2.92034 10.5737 2.98363 10.5427 3.07857C10.5117 3.20516 10.4653 3.38713 10.4033 3.62448C10.3413 3.86183 10.2949 4.02797 10.2639 4.12291C10.109 4.56596 9.96954 5.07231 9.84561 5.64195C9.78364 5.57866 9.75266 5.53119 9.75266 5.49954C9.62873 4.96155 9.41185 4.15456 9.10203 3.07857C9.04006 2.95198 8.9781 2.88869 8.91613 2.88869ZM14.493 8.20533V7.68316C14.493 7.52493 14.4852 7.28758 14.4697 6.97111C14.4543 6.65464 14.4465 6.41729 14.4465 6.25906C14.4465 6.22742 14.4388 6.18786 14.4233 6.14039C14.4078 6.09292 14.4 6.05336 14.4 6.02171C14.2451 5.16725 13.7649 4.74002 12.9593 4.74002C12.1228 4.74002 11.6426 5.16725 11.5187 6.02171C11.4877 6.36982 11.4722 7.14517 11.4722 8.34774C11.4722 8.7908 11.4877 9.12309 11.5187 9.34461C11.6116 9.69273 11.782 9.98546 12.0299 10.2228C12.2777 10.4602 12.5876 10.5788 12.9593 10.5788C13.3311 10.5788 13.6565 10.4602 13.9353 10.2228C14.2141 9.98546 14.369 9.69273 14.4 9.34461L14.4697 8.82244L14.493 8.20533ZM12.5876 8.96485V7.63569C12.5876 7.47746 12.5798 7.25593 12.5643 6.97111C12.5488 6.68629 12.5411 6.48059 12.5411 6.354C12.5411 6.22742 12.5566 6.13247 12.5876 6.06918C12.6495 5.84765 12.7889 5.73689 13.0058 5.73689C13.2537 5.73689 13.3931 5.84765 13.4241 6.06918V8.96485C13.4241 9.15473 13.4086 9.28132 13.3776 9.34461C13.2537 9.50284 13.1297 9.58196 13.0058 9.58196C12.8819 9.58196 12.758 9.50284 12.634 9.34461C12.603 9.28132 12.5876 9.15473 12.5876 8.96485ZM14.4 16.7025V18.174C14.369 18.6804 14.369 19.1867 14.4 19.6931C14.4 19.9462 14.5704 20.0887 14.9112 20.1203C15.1281 20.1203 15.252 20.0095 15.283 19.788V16.6075C15.283 16.386 15.1591 16.2752 14.9112 16.2752C14.5704 16.2752 14.4 16.4176 14.4 16.7025ZM17.8158 17.011C17.8004 17.2167 17.7926 17.3829 17.7926 17.5095H18.7221C18.7221 17.1613 18.6911 16.829 18.6291 16.5126C18.5982 16.3227 18.4742 16.2278 18.2574 16.2278C18.0095 16.2278 17.8701 16.3227 17.8391 16.5126C17.8391 16.6392 17.8313 16.8053 17.8158 17.011Z" fill="white"/>
</svg>
